<?xml version="1.0" encoding="UTF-8" standalone="no"?>
<!DOCTYPE svg PUBLIC "-//W3C//DTD SVG 1.1//EN" "http://www.w3.org/Graphics/SVG/1.1/DTD/svg11.dtd">
<svg xmlns="http://www.w3.org/2000/svg" version="1.1" viewBox="0.00 0.00 48.00 48.00">
<path fill="#000000" d="
  M 37.42 15.75
  Q 24.12 20.31 10.81 15.79
  Q 10.49 15.68 10.37 16.01
  Q 8.79 20.46 12.69 21.63
  Q 20.84 24.07 28.89 22.96
  A 1.46 1.44 74.8 0 1 30.42 23.85
  Q 30.78 24.74 30.27 25.39
  Q 29.92 25.83 29.09 25.94
  Q 19.52 27.26 10.49 23.96
  Q 10.02 23.79 10.04 24.29
  L 10.16 28.18
  A 0.97 0.96 12.6 0 0 10.71 29.03
  Q 15.59 31.38 21.01 31.54
  A 1.57 1.56 -3.3 0 1 22.51 32.87
  Q 22.75 34.51 21.01 34.46
  Q 15.63 34.33 10.67 32.37
  Q 10.08 32.14 10.08 32.77
  L 10.11 36.45
  A 0.96 0.96 0.0 0 0 10.64 37.29
  Q 15.43 39.68 20.80 39.84
  A 1.60 1.58 89.6 0 1 22.34 41.37
  Q 22.40 42.70 21.01 42.71
  C 16.01 42.75 7.13 41.63 7.09 35.18
  Q 7.03 23.03 7.06 10.88
  A 1.46 1.46 0.0 0 1 7.41 9.93
  Q 9.82 7.10 13.51 6.36
  A 1.36 1.34 -20.4 0 1 14.95 7.01
  Q 15.48 7.91 14.93 8.66
  C 14.28 9.55 11.55 10.06 10.36 11.14
  A 0.61 0.61 0.0 0 0 10.45 12.11
  C 17.61 16.42 29.10 15.44 36.85 12.80
  A 1.17 1.16 55.0 0 0 37.20 10.79
  C 33.86 8.10 26.07 7.83 22.00 8.05
  A 1.46 1.46 0.0 0 1 20.46 6.50
  Q 20.55 5.03 22.00 4.97
  C 27.56 4.74 36.83 5.27 40.67 10.03
  A 1.46 1.45 -64.1 0 1 40.99 10.97
  L 40.86 20.23
  A 0.94 0.93 -9.6 0 1 40.24 21.09
  Q 39.19 21.45 38.52 20.99
  Q 38.04 20.65 37.98 19.75
  Q 37.87 17.95 37.91 16.11
  Q 37.92 15.57 37.42 15.75
  Z"
/>
<path fill="#000000" d="
  M 36.71 27.44
  L 33.97 27.55
  A 1.39 1.38 -67.2 0 1 32.99 25.14
  Q 33.73 24.46 34.84 24.46
  C 37.66 24.44 39.92 24.12 40.49 27.66
  A 0.51 0.51 0.0 0 0 41.09 28.08
  L 43.19 27.68
  A 0.78 0.75 54.6 0 1 43.72 27.78
  Q 48.62 30.82 46.04 35.65
  Q 45.72 36.25 46.07 36.85
  Q 48.47 40.89 44.61 44.02
  C 43.50 44.92 42.60 44.87 41.44 44.15
  A 1.36 1.36 0.0 0 1 41.94 41.66
  Q 43.44 41.42 43.91 39.95
  Q 44.07 39.43 43.70 39.02
  Q 42.16 37.33 42.73 35.00
  Q 42.86 34.47 43.24 34.07
  Q 44.46 32.81 43.30 31.30
  Q 42.97 30.86 42.43 30.95
  Q 38.60 31.56 37.39 27.92
  A 0.69 0.68 80.0 0 0 36.71 27.44
  Z"
/>
<path fill="#000000" d="
  M 37.20 48.00
  L 34.67 48.00
  L 32.68 47.32
  A 0.92 0.91 -82.2 0 1 32.08 46.52
  Q 31.91 43.54 29.12 44.82
  Q 28.78 44.98 28.46 44.78
  Q 23.22 41.54 26.32 36.51
  Q 26.63 36.01 26.25 35.56
  L 25.24 34.39
  Q 24.91 34.01 24.98 33.51
  C 25.39 30.58 27.36 26.48 30.63 28.30
  A 1.37 1.37 0.0 0 1 30.13 30.86
  Q 28.56 31.07 28.22 32.62
  Q 28.10 33.15 28.46 33.56
  Q 30.05 35.41 29.25 37.79
  Q 29.08 38.30 28.71 38.69
  Q 27.56 39.89 28.92 41.19
  Q 29.31 41.56 29.83 41.49
  Q 33.54 41.02 34.71 44.60
  Q 34.86 45.05 35.33 45.01
  L 38.02 44.82
  A 1.44 1.43 26.9 0 1 38.89 47.47
  Q 38.32 47.82 37.20 48.00
  Z"
/>
<path fill="#000000" d="
  M 40.14 36.30
  A 4.14 4.14 0.0 0 1 36.00 40.44
  A 4.14 4.14 0.0 0 1 31.86 36.30
  A 4.14 4.14 0.0 0 1 36.00 32.16
  A 4.14 4.14 0.0 0 1 40.14 36.30
  Z
  M 37.18 36.30
  A 1.18 1.18 0.0 0 0 36.00 35.12
  A 1.18 1.18 0.0 0 0 34.82 36.30
  A 1.18 1.18 0.0 0 0 36.00 37.48
  A 1.18 1.18 0.0 0 0 37.18 36.30
  Z"
/>
</svg>
